<svg width="20" height="18" viewBox="0 0 20 18" fill="none" xmlns="http://www.w3.org/2000/svg">
<rect width="20" height="18" fill="white"/>
<path d="M4.3427 14.6569C3.95217 14.2663 3.95217 13.6332 4.3427 13.2427L14.2422 3.34316C14.6327 2.95263 15.2659 2.95263 15.6564 3.34316C16.0469 3.73368 16.0469 4.36684 15.6564 4.75737L5.75691 14.6569C5.36639 15.0474 4.73322 15.0474 4.3427 14.6569Z" fill="black"/>
<path d="M15.6065 14.6066C15.997 14.2161 15.997 13.5829 15.6065 13.1924L5.70703 3.29289C5.3165 2.90237 4.68334 2.90237 4.29281 3.29289C3.90229 3.68342 3.90229 4.31658 4.29281 4.70711L14.1923 14.6066C14.5828 14.9971 15.216 14.9971 15.6065 14.6066Z" fill="black"/>
</svg>
