<svg width="88" height="66" viewBox="0 0 88 66" fill="none" xmlns="http://www.w3.org/2000/svg">
<path d="M60.5 19.25C60.5 18.5207 60.7897 17.8212 61.3055 17.3055C61.8212 16.7897 62.5207 16.5 63.25 16.5H74.25C74.9793 16.5 75.6788 16.7897 76.1945 17.3055C76.7103 17.8212 77 18.5207 77 19.25V24.75C77 25.4793 76.7103 26.1788 76.1945 26.6945C75.6788 27.2103 74.9793 27.5 74.25 27.5H63.25C62.5207 27.5 61.8212 27.2103 61.3055 26.6945C60.7897 26.1788 60.5 25.4793 60.5 24.75V19.25Z" fill="#3463F8"/>
<path d="M11 0C8.08262 0 5.28473 1.15892 3.22183 3.22182C1.15893 5.28473 0 8.08262 0 11L0 55C0 57.9174 1.15893 60.7153 3.22183 62.7782C5.28473 64.8411 8.08262 66 11 66H77C79.9174 66 82.7153 64.8411 84.7782 62.7782C86.8411 60.7153 88 57.9174 88 55V11C88 8.08262 86.8411 5.28473 84.7782 3.22182C82.7153 1.15892 79.9174 0 77 0H11ZM82.5 11V38.5H5.5V11C5.5 9.54131 6.07946 8.14236 7.11091 7.11091C8.14236 6.07946 9.54131 5.5 11 5.5H77C78.4587 5.5 79.8576 6.07946 80.8891 7.11091C81.9205 8.14236 82.5 9.54131 82.5 11ZM77 60.5H11C9.54131 60.5 8.14236 59.9205 7.11091 58.8891C6.07946 57.8576 5.5 56.4587 5.5 55V49.5H82.5V55C82.5 56.4587 81.9205 57.8576 80.8891 58.8891C79.8576 59.9205 78.4587 60.5 77 60.5Z" fill="#3463F8"/>
</svg>
