<svg width="84" height="66" viewBox="0 0 84 66" fill="none" xmlns="http://www.w3.org/2000/svg">
<path d="M15 18C14.2044 18 13.4413 18.3161 12.8787 18.8787C12.3161 19.4413 12 20.2044 12 21C12 21.7956 12.3161 22.5587 12.8787 23.1213C13.4413 23.6839 14.2044 24 15 24H57C57.7957 24 58.5587 23.6839 59.1213 23.1213C59.6839 22.5587 60 21.7956 60 21C60 20.2044 59.6839 19.4413 59.1213 18.8787C58.5587 18.3161 57.7957 18 57 18H15ZM15 30C14.2044 30 13.4413 30.3161 12.8787 30.8787C12.3161 31.4413 12 32.2043 12 33V45C12 45.7957 12.3161 46.5587 12.8787 47.1213C13.4413 47.6839 14.2044 48 15 48H27C27.7956 48 28.5587 47.6839 29.1213 47.1213C29.6839 46.5587 30 45.7957 30 45V33C30 32.2043 29.6839 31.4413 29.1213 30.8787C28.5587 30.3161 27.7956 30 27 30H15ZM18 42V36H24V42H18ZM39 30C38.2043 30 37.4413 30.3161 36.8787 30.8787C36.3161 31.4413 36 32.2043 36 33C36 33.7957 36.3161 34.5587 36.8787 35.1213C37.4413 35.6839 38.2043 36 39 36H57C57.7957 36 58.5587 35.6839 59.1213 35.1213C59.6839 34.5587 60 33.7957 60 33C60 32.2043 59.6839 31.4413 59.1213 30.8787C58.5587 30.3161 57.7957 30 57 30H39ZM39 42C38.2043 42 37.4413 42.3161 36.8787 42.8787C36.3161 43.4413 36 44.2043 36 45C36 45.7957 36.3161 46.5587 36.8787 47.1213C37.4413 47.6839 38.2043 48 39 48H57C57.7957 48 58.5587 47.6839 59.1213 47.1213C59.6839 46.5587 60 45.7957 60 45C60 44.2043 59.6839 43.4413 59.1213 42.8787C58.5587 42.3161 57.7957 42 57 42H39ZM0 12C0 8.8174 1.26428 5.76515 3.51472 3.51472C5.76516 1.26428 8.8174 0 12 0H60C63.1826 0 66.2348 1.26428 68.4853 3.51472C70.7357 5.76515 72 8.8174 72 12C75.1826 12 78.2348 13.2643 80.4853 15.5147C82.7357 17.7652 84 20.8174 84 24V51C84 54.9782 82.4196 58.7936 79.6066 61.6066C76.7936 64.4196 72.9782 66 69 66H15C11.0218 66 7.20644 64.4196 4.3934 61.6066C1.58035 58.7936 0 54.9782 0 51V12ZM69 51C68.2044 51 67.4413 50.6839 66.8787 50.1213C66.3161 49.5587 66 48.7957 66 48V12C66 10.4087 65.3679 8.88258 64.2426 7.75736C63.1174 6.63214 61.5913 6 60 6H12C10.4087 6 8.88258 6.63214 7.75736 7.75736C6.63214 8.88258 6 10.4087 6 12V51C6 53.3869 6.94821 55.6761 8.63604 57.364C10.3239 59.0518 12.6131 60 15 60H69C71.3869 60 73.6761 59.0518 75.364 57.364C77.0518 55.6761 78 53.3869 78 51V24C78 22.4087 77.3679 20.8826 76.2426 19.7574C75.1174 18.6321 73.5913 18 72 18V48C72 48.7957 71.6839 49.5587 71.1213 50.1213C70.5587 50.6839 69.7956 51 69 51Z" fill="#3463F8"/>
</svg>
