<svg width="135" height="18" viewBox="0 0 135 18" fill="none" xmlns="http://www.w3.org/2000/svg">
<path d="M47.3093 18C47.4743 17.5062 47.6769 17.0256 47.9156 16.5624C49.9759 11.9764 52.0363 7.39043 54.0967 2.80446C54.2546 2.41176 54.4405 2.03073 54.653 1.66426C55.1406 0.872664 55.9247 0.305532 56.833 0.0873443C56.9281 0.0613771 57.0208 0.0283279 57.1159 0H58.364C58.8884 0.0877975 59.3871 0.288647 59.8249 0.588415C60.2628 0.888183 60.6291 1.27959 60.8982 1.73508C61.0575 2.0042 61.1907 2.2922 61.3285 2.57548C62.6979 5.38308 64.0665 8.1962 65.4342 11.0148C66.5658 13.3424 67.6959 15.6708 68.8243 18H63.0593C62.7431 17.2918 62.415 16.5647 62.1083 15.8353C62.0775 15.7195 62.0052 15.6189 61.9049 15.5524C61.8047 15.4859 61.6834 15.458 61.5639 15.4741C59.7215 15.4883 57.879 15.4741 56.0366 15.4741C55.825 15.4741 55.68 15.4741 55.7988 15.1837C56.3488 13.9845 56.89 12.7814 57.4226 11.5743C57.45 11.5014 57.5018 11.4401 57.5693 11.4006C57.6368 11.361 57.7159 11.3457 57.7934 11.3571C58.4852 11.3571 59.1794 11.3571 59.8736 11.3571C60.1113 11.3571 60.1708 11.3146 60.0638 11.0762C59.7357 10.3397 59.4267 9.59607 59.1129 8.85246L58.0858 6.44931C58.0121 6.58859 57.9598 6.68538 57.9171 6.77508C56.7807 9.26636 55.6451 11.7561 54.5103 14.2442C53.9445 15.4883 53.3858 16.7371 52.8224 17.9835L47.3093 18Z" fill="#636363"/>
<path d="M0 0.531113C0.112205 0.467088 0.242749 0.44216 0.370866 0.460293H4.17462C4.55024 0.460293 4.57164 0.481539 4.57164 0.868687C4.57164 2.76665 4.57164 4.66462 4.57164 6.56259V17.0652C4.57164 17.5939 4.57164 17.5939 4.02723 17.5939H0.432677C0.285038 17.6159 0.134155 17.5929 0 17.5278V0.531113Z" fill="#636363"/>
<path d="M130.317 11.5527V0.915542C130.317 0.51187 130.317 0.509509 130.725 0.509509C132.033 0.509509 133.341 0.509509 134.648 0.509509C134.924 0.509509 135 0.596853 135 0.863608C135 5.2804 135 9.69483 135 14.1116C134.976 14.9798 134.644 15.8118 134.064 16.4615C133.484 17.1112 132.691 17.5371 131.826 17.6644C130.362 17.8627 129.211 17.315 128.246 16.248C126.294 14.088 124.318 11.9516 122.355 9.80578C121.475 8.8442 120.597 7.88263 119.721 6.92105C119.649 6.84079 119.583 6.75345 119.502 6.6543C119.461 6.7056 119.433 6.76531 119.418 6.82904C119.404 6.89278 119.404 6.95891 119.419 7.02256C119.419 10.3952 119.419 13.7685 119.419 17.1427C119.419 17.6148 119.419 17.6148 118.943 17.6148C117.645 17.6148 116.347 17.6148 115.052 17.6148C114.778 17.6148 114.693 17.5298 114.693 17.2607C114.693 12.8534 114.671 8.4484 114.712 4.04105C114.724 2.51371 115.515 1.37823 116.927 0.752657C118.37 0.108197 119.759 0.315935 120.928 1.35698C121.879 2.21154 122.688 3.2219 123.558 4.16381C125.036 5.76669 126.501 7.37902 127.975 8.98663L130.317 11.5527Z" fill="#636363"/>
<path d="M80.794 0.0542943H84.9543C85.3252 0.0542943 85.3418 0.0708189 85.3418 0.43436C85.3418 1.66505 85.3418 2.89416 85.3418 4.12171C85.3418 4.52066 85.3204 4.5419 84.9234 4.5419H77.0782C75.9439 4.53947 74.8509 4.96425 74.0196 5.73056C73.1883 6.49686 72.6806 7.54768 72.5989 8.67108C72.5171 9.79447 72.8674 10.9068 73.5792 11.7839C74.2909 12.6609 75.3111 13.2372 76.4339 13.3967C76.7089 13.4329 76.9862 13.4503 77.2636 13.4487H84.9305C85.3347 13.4487 85.3418 13.4487 85.3418 13.8641C85.3418 15.0728 85.3418 16.2822 85.3418 17.4925C85.3418 17.915 85.3252 17.9339 84.9163 17.9339C82.2727 17.9339 79.6267 17.9764 76.9831 17.9339C74.7055 17.9104 72.5214 17.0308 70.8709 15.4721C69.2203 13.9135 68.2259 11.7918 68.0879 9.53418C67.9498 7.2766 68.6784 5.05094 70.1269 3.30548C71.5754 1.56002 73.6362 0.424447 75.8942 0.127475C76.8119 0.00235986 77.7343 0.0637369 78.6543 0.056655C79.3675 0.0472123 80.0808 0.0542943 80.794 0.0542943Z" fill="#3463F8"/>
<path d="M92.0319 0.106201C93.2206 0.106201 94.4283 0.106201 95.6264 0.106201C98.6457 0.134529 101.063 1.37151 102.865 3.75814C104.122 5.40869 104.737 7.45366 104.599 9.51814C104.48 11.5813 103.647 13.5404 102.241 15.0643C100.836 16.5882 98.9434 17.5835 96.8841 17.8819C96.4822 17.9355 96.077 17.9607 95.6716 17.9575C93.047 17.9575 90.4224 17.9575 87.7978 17.9575C87.3652 17.9575 87.3628 17.9575 87.3628 17.5349C87.3628 16.3168 87.3628 15.0964 87.3628 13.8783C87.3628 13.5926 87.4603 13.5076 87.7408 13.5076C90.3147 13.5171 92.8893 13.5171 95.4648 13.5076C96.5349 13.5223 97.5781 13.1743 98.4222 12.5209C100.45 10.9534 100.676 7.79958 98.8858 5.97243C98.4479 5.51462 97.9189 5.15228 97.3324 4.90843C96.7459 4.66459 96.1148 4.54458 95.479 4.55604C92.9163 4.55604 90.3511 4.55604 87.786 4.55604C87.3723 4.55604 87.3675 4.55604 87.3675 4.14764V0.514595C87.3675 0.113283 87.3675 0.106201 87.7883 0.106201H92.0319Z" fill="#3463F8"/>
<path d="M107.38 9.02953V0.885267C107.38 0.457988 107.38 0.455627 107.806 0.455627C109.054 0.455627 110.302 0.455627 111.55 0.455627C111.826 0.455627 111.93 0.53589 111.93 0.82389C111.93 6.29117 111.93 11.7577 111.93 17.2234C111.93 17.5043 111.842 17.6011 111.555 17.5987C110.287 17.5861 109.019 17.5861 107.751 17.5987C107.439 17.5987 107.371 17.483 107.373 17.1974C107.389 14.4779 107.391 11.7553 107.38 9.02953Z" fill="#636363"/>
<path d="M12.1124 6.60298C12.0614 6.7303 12.0442 6.86849 12.0625 7.0043C12.0625 10.3596 12.0625 13.7133 12.0625 17.0654C12.0625 17.5942 12.0625 17.5942 11.5181 17.5942H7.78563C7.36721 17.5942 7.36246 17.5942 7.36246 17.1905C7.36246 12.8359 7.36246 8.4797 7.36246 4.12193C7.35937 3.37653 7.58199 2.64742 8.00143 2.02923C8.42086 1.41103 9.01774 0.932295 9.7146 0.655151C10.4115 0.378008 11.1761 0.315253 11.9094 0.475033C12.6426 0.634812 13.3105 1.00975 13.8265 1.55118C15.7283 3.59551 17.6017 5.66344 19.4869 7.72193C20.552 8.88653 21.6194 10.0495 22.6892 11.211C22.7463 11.2724 22.7867 11.3597 22.896 11.3715C22.984 11.2582 22.9436 11.1354 22.9436 11.0056C22.9436 7.67236 22.9436 4.33833 22.9436 1.00351C22.9436 0.460555 22.9436 0.460555 23.5023 0.460555H27.2442C27.6507 0.460555 27.6531 0.460555 27.6531 0.876031C27.6531 5.25269 27.6531 9.62934 27.6531 14.006C27.6482 14.7538 27.414 15.4825 26.9817 16.0948C26.5493 16.7071 25.9393 17.1742 25.233 17.4337C24.5317 17.6912 23.7693 17.7368 23.042 17.5645C22.3147 17.3923 21.655 17.0099 21.1463 16.4658L15.2719 10.059L12.3335 6.85321L12.1124 6.60298Z" fill="#636363"/>
<path d="M29.9593 8.97527V0.509957C29.9593 0.0378259 29.9594 0.0378259 30.4348 0.0378259C33.3756 0.0378259 36.3164 0.0378259 39.2572 0.0378259C41.5858 0.00188904 43.8382 0.861741 45.5428 2.4374C47.2475 4.01307 48.2723 6.1824 48.4028 8.49134C48.5135 10.4159 47.9946 12.3244 46.9235 13.9321C45.8524 15.5399 44.2865 16.7606 42.4594 17.4123C41.5193 17.7581 40.5259 17.9394 39.5234 17.9481C36.4733 17.9481 33.4231 17.9481 30.373 17.9481C29.976 17.9481 29.9593 17.9316 29.9593 17.5279C29.9578 14.6794 29.9578 11.8285 29.9593 8.97527ZM34.5334 9.00124C34.5334 10.3586 34.5334 11.716 34.5334 13.071C34.5334 13.3496 34.6118 13.4464 34.9019 13.444C36.3782 13.4322 37.8521 13.4275 39.3285 13.444C40.5151 13.4668 41.6623 13.0207 42.5176 12.2037C43.3729 11.3866 43.8664 10.2657 43.8894 9.0874C43.9124 7.90911 43.4631 6.77 42.6403 5.92066C41.8175 5.07133 40.6886 4.58134 39.502 4.55848C37.9758 4.55848 36.4519 4.55848 34.9256 4.55848C34.5405 4.55848 34.5381 4.55848 34.5381 4.96216L34.5334 9.00124Z" fill="#636363"/>
</svg>
