<svg width="143" height="19" viewBox="0 0 143 19" fill="none" xmlns="http://www.w3.org/2000/svg">
<path d="M50.0453 19C50.2197 18.4787 50.4342 17.9714 50.6865 17.4825C52.8662 12.6417 55.0458 7.80101 57.2254 2.96026C57.3926 2.54574 57.5891 2.14354 57.8139 1.75672C58.3297 0.921144 59.1593 0.322506 60.12 0.0921968C60.2207 0.0647868 60.3188 0.0299017 60.4193 0H61.7397C62.2944 0.0926751 62.8221 0.304682 63.2851 0.621104C63.7484 0.937527 64.136 1.35067 64.4207 1.83148C64.5892 2.11554 64.7299 2.41954 64.8759 2.71856C66.3244 5.68214 67.7722 8.65154 69.2191 11.6268C70.4162 14.0837 71.6117 16.5414 72.8055 19H66.7067C66.3722 18.2525 66.0252 17.485 65.7008 16.715C65.6682 16.5928 65.5917 16.4866 65.4855 16.4164C65.3796 16.3462 65.2512 16.3168 65.1249 16.3338C63.1756 16.3487 61.2266 16.3338 59.2776 16.3338C59.0537 16.3338 58.9004 16.3338 59.026 16.0273C59.6079 14.7614 60.1805 13.4915 60.7437 12.2173C60.7729 12.1404 60.8276 12.0757 60.8991 12.0339C60.9704 11.9922 61.054 11.976 61.1362 11.9881C61.8681 11.9881 62.6023 11.9881 63.3366 11.9881C63.5882 11.9881 63.6511 11.9432 63.5378 11.6915C63.1908 10.9141 62.8638 10.1292 62.532 9.34426L61.4454 6.80761C61.3676 6.95462 61.3122 7.05679 61.2669 7.15147C60.0648 9.78116 58.8636 12.4092 57.663 15.0355C57.0645 16.3487 56.4734 17.6669 55.8774 18.9825L50.0453 19Z" fill="#545454"/>
<path d="M0 0.560666C0.118699 0.493086 0.256797 0.466772 0.392329 0.485912H4.41621C4.81358 0.485912 4.83621 0.50834 4.83621 0.916994C4.83621 2.92041 4.83621 4.92381 4.83621 6.92723V18.0133C4.83621 18.5714 4.83621 18.5714 4.26029 18.5714H0.457718C0.301533 18.5946 0.141918 18.5703 0 18.5017V0.560666Z" fill="#545454"/>
<path d="M137.86 12.1947V0.966592C137.86 0.540493 137.86 0.538001 138.293 0.538001C139.676 0.538001 141.059 0.538001 142.442 0.538001C142.734 0.538001 142.814 0.630199 142.814 0.911772C142.814 5.57394 142.814 10.2336 142.814 14.8958C142.789 15.8122 142.438 16.6904 141.825 17.3762C141.211 18.062 140.372 18.5115 139.457 18.6459C137.908 18.8553 136.691 18.2772 135.67 17.1508C133.605 14.8708 131.515 12.6158 129.438 10.3507C128.507 9.33572 127.578 8.32073 126.651 7.30574C126.576 7.22102 126.505 7.12881 126.42 7.02417C126.377 7.07832 126.346 7.14135 126.331 7.20861C126.316 7.2759 126.316 7.3457 126.332 7.41288C126.332 10.9729 126.332 14.5336 126.332 18.0952C126.332 18.5936 126.332 18.5936 125.829 18.5936C124.455 18.5936 123.082 18.5936 121.712 18.5936C121.422 18.5936 121.332 18.5039 121.332 18.2198C121.332 13.5676 121.309 8.91794 121.352 4.26574C121.365 2.65355 122.202 1.45499 123.696 0.794657C125.222 0.114395 126.691 0.333674 127.929 1.43256C128.934 2.33459 129.79 3.40109 130.71 4.39531C132.274 6.08724 133.824 7.78916 135.383 9.48606L137.86 12.1947Z" fill="#545454"/>
<path d="M85.47 0.0572225H89.8711C90.2635 0.0572225 90.2811 0.074665 90.2811 0.458404C90.2811 1.75746 90.2811 3.05486 90.2811 4.3506C90.2811 4.77171 90.2584 4.79414 89.8384 4.79414H81.5391C80.3392 4.79157 79.183 5.23995 78.3035 6.04883C77.4241 6.85771 76.8871 7.9669 76.8007 9.15271C76.7142 10.3385 77.0848 11.5127 77.8376 12.4384C78.5906 13.3641 79.6698 13.9725 80.8576 14.1409C81.1485 14.1791 81.4418 14.1974 81.7353 14.1957H89.8459C90.2736 14.1957 90.2811 14.1957 90.2811 14.6343C90.2811 15.9101 90.2811 17.1867 90.2811 18.4642C90.2811 18.9102 90.2635 18.9301 89.8309 18.9301C87.0343 18.9301 84.2352 18.975 81.4386 18.9301C79.0291 18.9054 76.7187 17.9768 74.9725 16.3316C73.2266 14.6864 72.1745 12.4468 72.0285 10.0638C71.8825 7.68076 72.6533 5.33145 74.1857 3.48903C75.7179 1.6466 77.8981 0.447939 80.2868 0.134468C81.2574 0.00240284 82.2332 0.0671897 83.2065 0.0597143C83.961 0.0497471 84.7155 0.0572225 85.47 0.0572225Z" fill="url(#paint0_linear)"/>
<path d="M97.3589 0.112183C98.6163 0.112183 99.8939 0.112183 101.161 0.112183C104.355 0.142084 106.913 1.44779 108.819 3.967C110.149 5.70925 110.8 7.86783 110.653 10.047C110.527 12.2248 109.646 14.2927 108.159 15.9013C106.672 17.5099 104.67 18.5604 102.492 18.8754C102.067 18.932 101.638 18.9586 101.209 18.9553C98.4327 18.9553 95.6561 18.9553 92.8796 18.9553C92.422 18.9553 92.4196 18.9553 92.4196 18.5092C92.4196 17.2234 92.4196 15.9351 92.4196 14.6494C92.4196 14.3479 92.5227 14.2581 92.8194 14.2581C95.5422 14.2681 98.2659 14.2681 100.99 14.2581C102.122 14.2736 103.226 13.9062 104.119 13.2166C106.264 11.562 106.503 8.23297 104.609 6.30432C104.146 5.82107 103.586 5.43859 102.966 5.1812C102.346 4.9238 101.678 4.79714 101.005 4.80923C98.2943 4.80923 95.5807 4.80923 92.8671 4.80923C92.4295 4.80923 92.4244 4.80923 92.4244 4.37815V0.543264C92.4244 0.119658 92.4244 0.112183 92.8697 0.112183H97.3589Z" fill="url(#paint1_linear)"/>
<path d="M113.593 9.53119V0.934465C113.593 0.483449 113.593 0.480957 114.043 0.480957C115.364 0.480957 116.684 0.480957 118.004 0.480957C118.296 0.480957 118.407 0.565678 118.407 0.869678C118.407 6.6407 118.407 12.4109 118.407 18.1802C118.407 18.4768 118.313 18.5789 118.009 18.5764C116.668 18.5631 115.327 18.5631 113.985 18.5764C113.656 18.5764 113.583 18.4543 113.586 18.1528C113.602 15.2823 113.605 12.4084 113.593 9.53119Z" fill="#545454"/>
<path d="M12.8115 6.96999C12.7576 7.10438 12.7394 7.25024 12.7587 7.39359C12.7587 10.9353 12.7587 14.4753 12.7587 18.0137C12.7587 18.5718 12.7587 18.5718 12.1828 18.5718H8.23432C7.79169 18.5718 7.78665 18.5718 7.78665 18.1457C7.78665 13.5492 7.78665 8.95096 7.78665 4.3511C7.7834 3.56429 8.0189 2.79468 8.46261 2.14212C8.90632 1.48959 9.53773 0.984259 10.2749 0.691718C11.0121 0.399178 11.821 0.332937 12.5967 0.501593C13.3724 0.670248 14.079 1.06601 14.6247 1.63753C16.6367 3.79542 18.6185 5.97824 20.6127 8.1511C21.7395 9.3804 22.8687 10.608 24.0004 11.834C24.0608 11.8988 24.1035 11.991 24.2192 12.0034C24.3122 11.8838 24.2695 11.7542 24.2695 11.6172C24.2695 8.09877 24.2695 4.57951 24.2695 1.05943C24.2695 0.486311 24.2695 0.486311 24.8606 0.486311H28.8189C29.2491 0.486311 29.2517 0.486311 29.2517 0.924869C29.2517 5.54467 29.2517 10.1645 29.2517 14.7843C29.2464 15.5737 28.9986 16.3428 28.5412 16.9891C28.0839 17.6355 27.4385 18.1285 26.6913 18.4024C25.9496 18.6742 25.143 18.7223 24.3736 18.5405C23.6041 18.3587 22.9063 17.9551 22.3682 17.3807L16.1538 10.618L13.0454 7.23412L12.8115 6.96999Z" fill="#545454"/>
<path d="M31.6927 9.47381V0.5382C31.6927 0.0398392 31.6927 0.0398392 32.1956 0.0398392C35.3066 0.0398392 38.4176 0.0398392 41.5286 0.0398392C43.992 0.00190585 46.3747 0.909527 48.1781 2.57273C49.9813 4.23593 51.0654 6.52577 51.2036 8.96299C51.3205 10.9945 50.7717 13.009 49.6386 14.7061C48.5055 16.4031 46.849 17.6917 44.9162 18.3795C43.9216 18.7444 42.8708 18.9359 41.8103 18.9452C38.5836 18.9452 35.3569 18.9452 32.1303 18.9452C31.7103 18.9452 31.6927 18.9277 31.6927 18.5016C31.691 15.4948 31.691 12.4856 31.6927 9.47381ZM36.5315 9.50122C36.5315 10.934 36.5315 12.3668 36.5315 13.7971C36.5315 14.0911 36.6144 14.1933 36.9212 14.1908C38.4829 14.1783 40.0423 14.1733 41.604 14.1908C42.8594 14.2149 44.0728 13.744 44.9776 12.8815C45.8826 12.0192 46.4046 10.8359 46.429 9.59216C46.4533 8.34841 45.9779 7.14603 45.1075 6.24951C44.2372 5.35298 43.0428 4.83576 41.7876 4.81163C40.1731 4.81163 38.561 4.81163 36.9464 4.81163C36.5389 4.81163 36.5365 4.81163 36.5365 5.23774L36.5315 9.50122Z" fill="#545454"/>
<defs>
<linearGradient id="paint0_linear" x1="81.1461" y1="0.050293" x2="76.0372" y2="16.6854" gradientUnits="userSpaceOnUse">
<stop stop-color="#3463F8"/>
<stop offset="1" stop-color="#214FDF"/>
</linearGradient>
<linearGradient id="paint1_linear" x1="101.546" y1="0.112182" x2="92.5313" y2="17.1732" gradientUnits="userSpaceOnUse">
<stop stop-color="#3463F8"/>
<stop offset="1" stop-color="#214FDF"/>
</linearGradient>
</defs>
</svg>
