<svg width="116" height="169" viewBox="0 0 116 169" fill="none" xmlns="http://www.w3.org/2000/svg">
<path d="M108.033 24.2551L108.134 24.1213V23.9537V1V0.5H107.634H6.91865H6.41865V1V26.2959V26.7959H6.91865H74.5385L39.7798 72.6038L39.5647 72.8873L39.7621 73.1834L50.5363 89.3447L50.6847 89.5673H50.9523H57.0421C66.3282 89.5673 73.6176 91.8878 78.9677 96.4736C84.3071 101.05 86.9909 107.306 86.9909 115.3C86.9909 123.293 84.3078 129.63 78.9642 134.364C73.6144 138.948 66.3262 141.267 57.0421 141.267C48.8355 141.267 42.1265 139.525 36.8808 136.079C31.6396 132.636 27.8168 127.464 25.4265 120.524L25.2283 119.949L24.7023 120.255L1.74861 133.606L1.38007 133.82L1.5335 134.218C5.78858 145.249 12.8873 153.77 22.8217 159.762L22.8267 159.765C32.7499 165.593 44.1601 168.5 57.0421 168.5C73.3835 168.5 87.0878 163.783 98.12 154.328C109.334 144.851 114.926 131.821 114.926 115.3C114.926 103.168 111.221 92.8983 103.795 84.5235C96.6829 76.1755 87.1536 70.5641 75.2354 67.6772L108.033 24.2551Z" stroke="black"/>
</svg>
