<svg width="113" height="167" viewBox="0 0 113 167" fill="none" xmlns="http://www.w3.org/2000/svg">
<path d="M105.634 22.9537L72.3745 66.9874C84.554 69.798 94.2352 75.4193 101.418 83.8513C108.757 92.1272 112.426 102.277 112.426 114.3C112.426 130.696 106.883 143.578 95.7966 152.947C84.8663 162.316 71.2814 167 55.0421 167C42.238 167 30.9172 164.111 21.0799 158.334C11.2426 152.4 4.21599 143.968 0 133.038L22.9537 119.687C27.7943 133.741 38.4904 140.767 55.0421 140.767C64.4109 140.767 71.828 138.425 77.2931 133.741C82.7583 128.9 85.4909 122.42 85.4909 114.3C85.4909 106.18 82.7583 99.7784 77.2931 95.094C71.828 90.4095 64.4109 88.0673 55.0421 88.0673H48.9523L38.1781 71.906L73.5456 25.2959H4.91865V0H105.634V22.9537Z" fill="#3463F8"/>
</svg>
