<svg width="112" height="169" viewBox="0 0 112 169" fill="none" xmlns="http://www.w3.org/2000/svg">
<path d="M110.241 168.5H110.741V168V142.001V141.501H110.241H43.6497L79.7355 105.348L79.7399 105.343C98.3247 86.254 107.702 68.3337 107.702 51.5919C107.702 36.01 102.511 23.5319 92.1056 14.2124L92.1053 14.2121C81.8766 5.06782 69.443 0.5 54.8346 0.5C43.2144 0.5 32.6812 3.41158 23.2477 9.23922C13.8043 14.9166 6.57129 23.1938 1.54625 34.0494L1.35596 34.4605L1.74633 34.6903L24.4231 48.041L24.8914 48.3167L25.1272 47.8272C28.3706 41.0961 32.4868 36.0786 37.4625 32.7424C42.4354 29.4082 48.2971 27.7328 55.0684 27.7328C62.4404 27.7328 68.3871 29.96 72.9555 34.3844C77.5148 38.8001 79.8167 44.8277 79.8167 52.5288C79.8167 62.4666 73.0109 74.365 59.1563 88.2456L59.1527 88.2493L2.11011 146.57L1.96756 146.716V146.92V168V168.5H2.46756H110.241Z" stroke="black"/>
</svg>
