<svg width="109" height="167" viewBox="0 0 109 167" fill="none" xmlns="http://www.w3.org/2000/svg">
<path d="M108.241 167H0.467563V145.92L57.5102 87.5989C71.3812 73.7017 78.3167 61.6784 78.3167 51.5288C78.3167 43.7214 75.9789 37.5535 71.3033 33.0253C66.6277 28.497 60.5494 26.2328 53.0684 26.2328C39.3532 26.2328 29.2227 33.0253 22.6768 46.6101L0 33.2595C4.98733 22.4853 12.1566 14.2875 21.5079 8.6662C30.8591 2.88873 41.3014 0 52.8346 0C67.329 0 79.6415 4.52829 89.772 13.5849C100.058 22.7976 105.202 35.1333 105.202 50.5919C105.202 67.1435 95.9283 84.9444 77.3816 103.994L40.4442 141.001H108.241V167Z" fill="#3463F8"/>
</svg>
