<svg width="25" height="24" viewBox="0 0 25 24" fill="none" xmlns="http://www.w3.org/2000/svg">
<path d="M0 12.0234C0 9.84776 0.561158 7.83604 1.68347 5.98829C2.80579 4.14053 4.32661 2.68055 6.24593 1.60833C8.16526 0.536109 10.2527 0 12.5081 0C14.1997 0 15.8154 0.317502 17.3552 0.952505C18.895 1.58751 20.2234 2.44112 21.3403 3.51334C22.4572 4.58556 23.3463 5.86337 24.0078 7.34678C24.6693 8.83019 25 10.3891 25 12.0234C25 13.6474 24.6693 15.201 24.0078 16.6845C23.3463 18.1679 22.4572 19.4431 21.3403 20.5101C20.2234 21.5771 18.895 22.4255 17.3552 23.0553C15.8154 23.6851 14.1997 24 12.5081 24C10.8057 24 9.18185 23.6825 7.63663 23.0475C6.09141 22.4125 4.76036 21.5589 3.64346 20.4867C2.52657 19.4144 1.6401 18.1418 0.98406 16.6688C0.32802 15.1958 0 13.6474 0 12.0234ZM2.74886 12.0234C2.74886 14.553 3.70852 16.7495 5.62785 18.6129C7.54717 20.4554 9.8406 21.3767 12.5081 21.3767C14.2648 21.3767 15.8913 20.9577 17.3878 20.1197C18.8842 19.2817 20.0716 18.1444 20.9499 16.7079C21.8282 15.2713 22.2674 13.7098 22.2674 12.0234C22.2674 10.337 21.8282 8.77293 20.9499 7.33116C20.0716 5.88939 18.8842 4.74951 17.3878 3.91152C15.8913 3.07352 14.2648 2.65452 12.5081 2.65452C10.7515 2.65452 9.12492 3.07352 7.6285 3.91152C6.13208 4.74951 4.9447 5.88939 4.06636 7.33116C3.18803 8.77293 2.74886 10.337 2.74886 12.0234Z" fill="black"/>
<line x1="1" y1="-1" x2="13.2044" y2="-1" transform="matrix(0.721388 0.692532 -0.721388 0.692532 6.8728 7.50732)" stroke="black" stroke-width="2" stroke-linecap="round"/>
<line x1="1" y1="-1" x2="13.2044" y2="-1" transform="matrix(0.721388 -0.692531 0.721388 0.692531 7.72266 17.2993)" stroke="black" stroke-width="2" stroke-linecap="round"/>
</svg>
