<svg width="24" height="24" viewBox="0 0 24 24" fill="none" xmlns="http://www.w3.org/2000/svg">
<path d="M0 12.0234C0 9.84776 0.538712 7.83604 1.61614 5.98829C2.69356 4.14053 4.15355 2.68055 5.9961 1.60833C7.83865 0.536109 9.84255 0 12.0078 0C13.6318 0 15.1828 0.317502 16.661 0.952505C18.1392 1.58751 19.4144 2.44112 20.4867 3.51334C21.5589 4.58556 22.4125 5.86337 23.0475 7.34678C23.6825 8.83019 24 10.3891 24 12.0234C24 13.6474 23.6825 15.201 23.0475 16.6845C22.4125 18.1679 21.5589 19.4431 20.4867 20.5101C19.4144 21.5771 18.1392 22.4255 16.661 23.0553C15.1828 23.6851 13.6318 24 12.0078 24C10.3735 24 8.81457 23.6825 7.33116 23.0475C5.84776 22.4125 4.56994 21.5589 3.49772 20.4867C2.4255 19.4144 1.5745 18.1418 0.944697 16.6688C0.314899 15.1958 0 13.6474 0 12.0234ZM2.63891 12.0234C2.63891 14.553 3.56018 16.7495 5.40273 18.6129C7.24528 20.4554 9.44697 21.3767 12.0078 21.3767C13.6942 21.3767 15.2557 20.9577 16.6923 20.1197C18.1288 19.2817 19.2687 18.1444 20.1119 16.7079C20.9551 15.2713 21.3767 13.7098 21.3767 12.0234C21.3767 10.337 20.9551 8.77293 20.1119 7.33116C19.2687 5.88939 18.1288 4.74951 16.6923 3.91152C15.2557 3.07352 13.6942 2.65452 12.0078 2.65452C10.3214 2.65452 8.75992 3.07352 7.32336 3.91152C5.88679 4.74951 4.74691 5.88939 3.90371 7.33116C3.06051 8.77293 2.63891 10.337 2.63891 12.0234ZM11.0865 12.0234V4.91867C11.0865 4.66884 11.1724 4.45803 11.3442 4.28627C11.5159 4.11451 11.7267 4.02863 11.9766 4.02863C12.2264 4.02863 12.4372 4.11451 12.609 4.28627C12.7807 4.45803 12.8666 4.66884 12.8666 4.91867V11.4769L16.6923 13.7098C16.9005 13.8347 17.0358 14.0143 17.0982 14.2485C17.1607 14.4828 17.1295 14.704 17.0046 14.9122C16.838 15.2141 16.583 15.365 16.2394 15.365C16.0625 15.365 15.9115 15.3234 15.7866 15.2401L11.7111 12.8666C11.5342 12.8146 11.3858 12.7105 11.2661 12.5543C11.1464 12.3982 11.0865 12.2212 11.0865 12.0234Z" fill="black"/>
</svg>
