<?xml version="1.0" encoding="UTF-8"?>
<svg xmlns="http://www.w3.org/2000/svg" xmlns:xlink="http://www.w3.org/1999/xlink" width="112pt" height="15pt" viewBox="0 0 112 15" version="1.1">
<defs>
<linearGradient id="linear0" gradientUnits="userSpaceOnUse" x1="433.536" y1="0.27002" x2="406" y2="89.5" gradientTransform="matrix(0.146597,0,0,0.147059,0,0)">
<stop offset="0" style="stop-color:rgb(20.392157%,38.823529%,97.254902%);stop-opacity:1;"/>
<stop offset="1" style="stop-color:rgb(12.941176%,30.980392%,87.45098%);stop-opacity:1;"/>
</linearGradient>
<linearGradient id="linear1" gradientUnits="userSpaceOnUse" x1="542.527" y1="0.602294" x2="494" y2="92" gradientTransform="matrix(0.146597,0,0,0.147059,0,0)">
<stop offset="0" style="stop-color:rgb(20.392157%,38.823529%,97.254902%);stop-opacity:1;"/>
<stop offset="1" style="stop-color:rgb(12.941176%,30.980392%,87.45098%);stop-opacity:1;"/>
</linearGradient>
</defs>
<g id="surface1">
<path style=" stroke:none;fill-rule:nonzero;fill:rgb(32.941176%,32.941176%,32.941176%);fill-opacity:1;" d="M 39.195312 15 C 39.332031 14.589844 39.5 14.1875 39.699219 13.800781 C 41.40625 9.980469 43.113281 6.160156 44.820312 2.335938 C 44.949219 2.011719 45.105469 1.691406 45.28125 1.386719 C 45.683594 0.726562 46.335938 0.253906 47.085938 0.0742188 C 47.164062 0.0507812 47.242188 0.0234375 47.320312 0 L 48.355469 0 C 48.789062 0.0742188 49.203125 0.242188 49.566406 0.492188 C 49.929688 0.738281 50.234375 1.066406 50.457031 1.445312 C 50.585938 1.671875 50.699219 1.910156 50.8125 2.144531 C 51.945312 4.484375 53.082031 6.832031 54.214844 9.179688 C 55.152344 11.117188 56.085938 13.058594 57.023438 15 L 52.246094 15 C 51.984375 14.410156 51.710938 13.804688 51.457031 13.195312 C 51.433594 13.097656 51.371094 13.015625 51.289062 12.960938 C 51.207031 12.90625 51.105469 12.882812 51.007812 12.894531 C 49.480469 12.90625 47.953125 12.894531 46.425781 12.894531 C 46.25 12.894531 46.132812 12.894531 46.230469 12.652344 C 46.6875 11.652344 47.132812 10.652344 47.574219 9.644531 C 47.597656 9.585938 47.640625 9.535156 47.695312 9.5 C 47.753906 9.46875 47.820312 9.453125 47.882812 9.464844 C 48.457031 9.464844 49.03125 9.464844 49.605469 9.464844 C 49.804688 9.464844 49.851562 9.429688 49.765625 9.230469 C 49.492188 8.617188 49.234375 7.996094 48.976562 7.378906 L 48.125 5.375 C 48.0625 5.492188 48.019531 5.570312 47.984375 5.644531 C 47.042969 7.722656 46.101562 9.796875 45.164062 11.871094 C 44.695312 12.90625 44.230469 13.949219 43.765625 14.984375 Z M 39.195312 15 "/>
<path style=" stroke:none;fill-rule:nonzero;fill:rgb(32.941176%,32.941176%,32.941176%);fill-opacity:1;" d="M 0 0.441406 C 0.09375 0.390625 0.199219 0.367188 0.308594 0.382812 L 3.457031 0.382812 C 3.769531 0.382812 3.789062 0.402344 3.789062 0.722656 C 3.789062 2.304688 3.789062 3.886719 3.789062 5.46875 L 3.789062 14.222656 C 3.789062 14.660156 3.789062 14.660156 3.335938 14.660156 L 0.359375 14.660156 C 0.234375 14.679688 0.109375 14.660156 0 14.605469 Z M 0 0.441406 "/>
<path style=" stroke:none;fill-rule:nonzero;fill:rgb(32.941176%,32.941176%,32.941176%);fill-opacity:1;" d="M 107.972656 9.628906 L 107.972656 0.761719 C 107.972656 0.425781 107.972656 0.425781 108.3125 0.425781 C 109.394531 0.425781 110.480469 0.425781 111.5625 0.425781 C 111.792969 0.425781 111.855469 0.496094 111.855469 0.71875 C 111.855469 4.402344 111.855469 8.078125 111.855469 11.761719 C 111.835938 12.484375 111.558594 13.175781 111.078125 13.71875 C 110.597656 14.257812 109.941406 14.613281 109.226562 14.71875 C 108.011719 14.886719 107.058594 14.429688 106.257812 13.539062 C 104.640625 11.738281 103.003906 9.960938 101.378906 8.171875 C 100.648438 7.371094 99.921875 6.570312 99.195312 5.769531 C 99.136719 5.699219 99.082031 5.628906 99.015625 5.546875 C 98.980469 5.589844 98.957031 5.636719 98.945312 5.691406 C 98.933594 5.742188 98.933594 5.800781 98.945312 5.851562 C 98.945312 8.664062 98.945312 11.472656 98.945312 14.285156 C 98.945312 14.679688 98.945312 14.679688 98.550781 14.679688 C 97.476562 14.679688 96.398438 14.679688 95.328125 14.679688 C 95.101562 14.679688 95.027344 14.609375 95.027344 14.382812 C 95.027344 10.710938 95.011719 7.039062 95.046875 3.367188 C 95.054688 2.09375 95.710938 1.148438 96.878906 0.628906 C 98.078125 0.0898438 99.226562 0.261719 100.195312 1.132812 C 100.984375 1.84375 101.652344 2.683594 102.375 3.46875 C 103.597656 4.804688 104.8125 6.148438 106.035156 7.488281 Z M 107.972656 9.628906 "/>
<path style=" stroke:none;fill-rule:nonzero;fill:url(#linear0);" d="M 66.941406 0.046875 L 70.386719 0.046875 C 70.695312 0.046875 70.710938 0.0585938 70.710938 0.363281 C 70.710938 1.386719 70.710938 2.410156 70.710938 3.433594 C 70.710938 3.765625 70.691406 3.785156 70.363281 3.785156 L 63.863281 3.785156 C 62.921875 3.78125 62.015625 4.136719 61.328125 4.777344 C 60.640625 5.414062 60.21875 6.289062 60.152344 7.226562 C 60.082031 8.160156 60.375 9.089844 60.964844 9.820312 C 61.554688 10.550781 62.398438 11.03125 63.328125 11.164062 C 63.558594 11.195312 63.785156 11.207031 64.015625 11.207031 L 70.367188 11.207031 C 70.703125 11.207031 70.710938 11.207031 70.710938 11.554688 C 70.710938 12.5625 70.710938 13.570312 70.710938 14.578125 C 70.710938 14.929688 70.695312 14.945312 70.355469 14.945312 C 68.167969 14.945312 65.972656 14.980469 63.785156 14.945312 C 61.898438 14.925781 60.085938 14.191406 58.71875 12.894531 C 57.351562 11.59375 56.527344 9.828125 56.414062 7.945312 C 56.300781 6.0625 56.902344 4.210938 58.105469 2.753906 C 59.304688 1.300781 61.011719 0.355469 62.882812 0.105469 C 63.640625 0 64.40625 0.0546875 65.167969 0.046875 C 65.757812 0.0390625 66.351562 0.046875 66.941406 0.046875 Z M 66.941406 0.046875 "/>
<path style=" stroke:none;fill-rule:nonzero;fill:url(#linear1);" d="M 76.253906 0.0898438 C 77.238281 0.0898438 78.238281 0.0898438 79.230469 0.0898438 C 81.734375 0.113281 83.734375 1.144531 85.230469 3.132812 C 86.269531 4.507812 86.78125 6.210938 86.664062 7.933594 C 86.566406 9.652344 85.875 11.285156 84.710938 12.554688 C 83.546875 13.824219 81.980469 14.652344 80.273438 14.902344 C 79.941406 14.945312 79.605469 14.96875 79.269531 14.964844 C 77.09375 14.964844 74.917969 14.964844 72.746094 14.964844 C 72.386719 14.964844 72.382812 14.964844 72.382812 14.613281 C 72.382812 13.597656 72.382812 12.582031 72.382812 11.566406 C 72.382812 11.328125 72.464844 11.257812 72.699219 11.257812 C 74.832031 11.265625 76.964844 11.265625 79.097656 11.257812 C 79.984375 11.269531 80.847656 10.980469 81.546875 10.433594 C 83.226562 9.128906 83.414062 6.5 81.933594 4.976562 C 81.570312 4.59375 81.128906 4.292969 80.644531 4.089844 C 80.160156 3.886719 79.636719 3.789062 79.109375 3.796875 C 76.984375 3.796875 74.859375 3.796875 72.734375 3.796875 C 72.390625 3.796875 72.386719 3.796875 72.386719 3.457031 L 72.386719 0.429688 C 72.386719 0.09375 72.386719 0.0898438 72.738281 0.0898438 Z M 76.253906 0.0898438 "/>
<path style=" stroke:none;fill-rule:nonzero;fill:rgb(32.941176%,32.941176%,32.941176%);fill-opacity:1;" d="M 88.96875 7.523438 L 88.96875 0.738281 C 88.96875 0.382812 88.96875 0.378906 89.320312 0.378906 C 90.355469 0.378906 91.390625 0.378906 92.421875 0.378906 C 92.652344 0.378906 92.738281 0.445312 92.738281 0.6875 C 92.738281 5.242188 92.738281 9.796875 92.738281 14.351562 C 92.738281 14.585938 92.664062 14.667969 92.425781 14.664062 C 91.375 14.65625 90.324219 14.65625 89.273438 14.664062 C 89.015625 14.664062 88.960938 14.570312 88.960938 14.332031 C 88.976562 12.066406 88.976562 9.796875 88.96875 7.523438 Z M 88.96875 7.523438 "/>
<path style=" stroke:none;fill-rule:nonzero;fill:rgb(32.941176%,32.941176%,32.941176%);fill-opacity:1;" d="M 10.035156 5.503906 C 9.992188 5.609375 9.976562 5.722656 9.992188 5.835938 C 9.992188 8.632812 9.992188 11.429688 9.992188 14.222656 C 9.992188 14.660156 9.992188 14.660156 9.542969 14.660156 L 6.449219 14.660156 C 6.101562 14.660156 6.097656 14.660156 6.097656 14.324219 C 6.097656 10.695312 6.097656 7.066406 6.097656 3.433594 C 6.097656 2.8125 6.28125 2.207031 6.628906 1.691406 C 6.976562 1.175781 7.46875 0.777344 8.046875 0.546875 C 8.625 0.316406 9.257812 0.261719 9.867188 0.394531 C 10.472656 0.527344 11.027344 0.839844 11.453125 1.292969 C 13.03125 2.996094 14.582031 4.71875 16.144531 6.433594 C 17.027344 7.40625 17.910156 8.375 18.796875 9.34375 C 18.84375 9.394531 18.878906 9.464844 18.96875 9.476562 C 19.042969 9.382812 19.007812 9.28125 19.007812 9.171875 C 19.007812 6.394531 19.007812 3.617188 19.007812 0.835938 C 19.007812 0.382812 19.007812 0.382812 19.472656 0.382812 L 22.570312 0.382812 C 22.910156 0.382812 22.910156 0.382812 22.910156 0.730469 C 22.910156 4.378906 22.910156 8.023438 22.910156 11.671875 C 22.90625 12.296875 22.710938 12.902344 22.355469 13.414062 C 21.996094 13.921875 21.492188 14.3125 20.90625 14.527344 C 20.324219 14.742188 19.691406 14.78125 19.089844 14.636719 C 18.488281 14.492188 17.941406 14.175781 17.519531 13.722656 L 12.652344 8.382812 L 10.21875 5.710938 Z M 10.035156 5.503906 "/>
<path style=" stroke:none;fill-rule:nonzero;fill:rgb(32.941176%,32.941176%,32.941176%);fill-opacity:1;" d="M 24.820312 7.480469 L 24.820312 0.425781 C 24.820312 0.03125 24.820312 0.03125 25.214844 0.03125 C 27.652344 0.03125 30.089844 0.03125 32.527344 0.03125 C 34.457031 0 36.320312 0.71875 37.734375 2.03125 C 39.144531 3.34375 39.996094 5.152344 40.101562 7.074219 C 40.195312 8.679688 39.765625 10.269531 38.878906 11.609375 C 37.992188 12.949219 36.691406 13.96875 35.179688 14.511719 C 34.398438 14.796875 33.578125 14.949219 32.746094 14.957031 C 30.21875 14.957031 27.691406 14.957031 25.164062 14.957031 C 24.835938 14.957031 24.820312 14.941406 24.820312 14.605469 C 24.820312 12.234375 24.820312 9.855469 24.820312 7.480469 Z M 28.613281 7.5 C 28.613281 8.632812 28.613281 9.761719 28.613281 10.890625 C 28.613281 11.125 28.675781 11.207031 28.917969 11.203125 C 30.140625 11.195312 31.363281 11.191406 32.585938 11.203125 C 33.566406 11.222656 34.519531 10.851562 35.226562 10.167969 C 35.9375 9.488281 36.34375 8.554688 36.363281 7.574219 C 36.382812 6.589844 36.011719 5.640625 35.328125 4.933594 C 34.648438 4.226562 33.710938 3.816406 32.730469 3.796875 C 31.464844 3.796875 30.203125 3.796875 28.9375 3.796875 C 28.617188 3.796875 28.617188 3.796875 28.617188 4.136719 Z M 28.613281 7.5 "/>
</g>
</svg>
