<svg width="174" height="24" viewBox="0 0 174 24" fill="none" xmlns="http://www.w3.org/2000/svg">
<path d="M60.8945 24C61.1068 23.3416 61.3678 22.7007 61.6748 22.0832C64.3269 15.9685 66.9791 9.85391 69.6312 3.73927C69.8346 3.21567 70.0737 2.70762 70.3472 2.21902C70.9749 1.16355 71.9843 0.407376 73.1533 0.116459C73.2759 0.081836 73.3952 0.0377706 73.5175 0H75.124C75.7991 0.117063 76.4411 0.384861 77.0046 0.784553C77.5682 1.18424 78.0399 1.70612 78.3863 2.31344C78.5913 2.67226 78.7626 3.05626 78.9402 3.43398C80.7027 7.17744 82.4644 10.9283 84.2249 14.6864C85.6816 17.7899 87.1362 20.8944 88.5888 24H81.1678C80.7608 23.0557 80.3386 22.0863 79.9439 21.1137C79.9043 20.9594 79.8111 20.8252 79.682 20.7365C79.5531 20.6479 79.3968 20.6107 79.2431 20.6321C76.8713 20.651 74.4998 20.6321 72.1282 20.6321C71.8559 20.6321 71.6693 20.6321 71.8221 20.245C72.5302 18.646 73.2269 17.0418 73.9122 15.4324C73.9477 15.3352 74.0142 15.2535 74.1012 15.2008C74.188 15.148 74.2898 15.1276 74.3898 15.1428C75.2803 15.1428 76.1737 15.1428 77.0672 15.1428C77.3733 15.1428 77.4498 15.0862 77.312 14.7683C76.8898 13.7862 76.4919 12.7948 76.0881 11.8033L74.766 8.59908C74.6713 8.78478 74.6039 8.91384 74.5487 9.03344C73.0861 12.3552 71.6245 15.6748 70.1637 18.9923C69.4353 20.651 68.7161 22.3161 67.991 23.9779L60.8945 24Z" fill="#545454"/>
<path d="M0 0.708557C0.144431 0.623192 0.312467 0.589954 0.477379 0.614131H5.37357C5.85708 0.614131 5.88461 0.64246 5.88461 1.15866C5.88461 3.68929 5.88461 6.2199 5.88461 8.75053V22.7539C5.88461 23.459 5.88461 23.459 5.18386 23.459H0.556943C0.366901 23.4883 0.172684 23.4576 0 23.3709V0.708557Z" fill="#545454"/>
<path d="M167.746 15.4039V1.22105C167.746 0.682818 167.746 0.67967 168.272 0.67967C169.955 0.67967 171.638 0.67967 173.321 0.67967C173.676 0.67967 173.774 0.796131 173.774 1.1518C173.774 7.04086 173.774 12.9267 173.774 18.8158C173.743 19.9734 173.317 21.0827 172.57 21.949C171.823 22.8152 170.803 23.3831 169.689 23.5528C167.804 23.8173 166.323 23.087 165.081 21.6643C162.568 18.7843 160.025 15.9358 157.498 13.0747C156.365 11.7926 155.235 10.5105 154.107 9.22839C154.015 9.12138 153.929 9.00491 153.825 8.87272C153.773 8.94112 153.736 9.02075 153.718 9.10571C153.699 9.1907 153.699 9.27886 153.718 9.36373C153.718 13.8605 153.718 18.3584 153.718 22.8572C153.718 23.4867 153.718 23.4867 153.106 23.4867C151.435 23.4867 149.765 23.4867 148.097 23.4867C147.745 23.4867 147.635 23.3735 147.635 23.0146C147.635 17.1382 147.607 11.2649 147.659 5.38839C147.675 3.35195 148.694 1.83797 150.511 1.00387C152.369 0.144589 154.156 0.421573 155.661 1.80964C156.885 2.94905 157.926 4.2962 159.046 5.55206C160.949 7.68924 162.834 9.83903 164.732 11.9825L167.746 15.4039Z" fill="#545454"/>
<path d="M103.998 0.0722296H109.353C109.831 0.0722296 109.852 0.0942624 109.852 0.578985C109.852 2.2199 109.852 3.85872 109.852 5.49545C109.852 6.02738 109.825 6.05571 109.314 6.05571H99.2153C97.7552 6.05246 96.3484 6.61884 95.2782 7.64058C94.2082 8.66232 93.5548 10.0634 93.4496 11.5613C93.3444 13.0591 93.7953 14.5423 94.7113 15.7116C95.6275 16.881 96.9407 17.6495 98.386 17.8621C98.7399 17.9104 99.0968 17.9335 99.4539 17.9314H109.323C109.843 17.9314 109.852 17.9314 109.852 18.4854C109.852 20.0969 109.852 21.7095 109.852 23.3231C109.852 23.8865 109.831 23.9117 109.305 23.9117C105.902 23.9117 102.496 23.9684 99.093 23.9117C96.1611 23.8804 93.3498 22.7075 91.2252 20.6294C89.1007 18.5512 87.8205 15.7222 87.6429 12.7121C87.4653 9.70197 88.4031 6.73441 90.2677 4.40714C92.132 2.07987 94.7849 0.565766 97.6914 0.169804C98.8725 0.00298377 100.06 0.0848198 101.244 0.0753772C102.162 0.062787 103.08 0.0722296 103.998 0.0722296Z" fill="url(#paint0_linear_6_1223)"/>
<path d="M118.465 0.141602C119.995 0.141602 121.549 0.141602 123.092 0.141602C126.978 0.179372 130.09 1.82868 132.409 5.01085C134.027 7.21158 134.819 9.93821 134.64 12.6908C134.487 15.4417 133.415 18.0538 131.606 20.0857C129.797 22.1176 127.361 23.4447 124.71 23.8425C124.193 23.914 123.671 23.9476 123.15 23.9434C119.771 23.9434 116.393 23.9434 113.014 23.9434C112.458 23.9434 112.455 23.9434 112.455 23.3799C112.455 21.7558 112.455 20.1285 112.455 18.5044C112.455 18.1235 112.58 18.0102 112.941 18.0102C116.254 18.0228 119.568 18.0228 122.883 18.0102C124.261 18.0297 125.604 17.5657 126.69 16.6945C129.3 14.6045 129.591 10.3994 127.287 7.96325C126.723 7.35283 126.042 6.8697 125.288 6.54457C124.533 6.21944 123.72 6.05944 122.902 6.07471C119.603 6.07471 116.301 6.07471 112.999 6.07471C112.467 6.07471 112.461 6.07471 112.461 5.53019V0.686125C112.461 0.151044 112.461 0.141602 113.002 0.141602H118.465Z" fill="url(#paint1_linear_6_1223)"/>
<path d="M138.218 12.0393V1.18027C138.218 0.61057 138.218 0.607422 138.766 0.607422C140.373 0.607422 141.979 0.607422 143.586 0.607422C143.941 0.607422 144.075 0.714438 144.075 1.09844C144.075 8.38814 144.075 15.6768 144.075 22.9644C144.075 23.339 143.962 23.468 143.592 23.4649C141.96 23.4481 140.328 23.4481 138.696 23.4649C138.295 23.4649 138.206 23.3106 138.209 22.9298C138.23 19.3038 138.233 15.6736 138.218 12.0393Z" fill="#545454"/>
<path d="M15.5888 8.80439C15.5232 8.97415 15.5011 9.15839 15.5245 9.33947C15.5245 13.8132 15.5245 18.2848 15.5245 22.7543C15.5245 23.4593 15.5245 23.4593 14.8238 23.4593H10.0194C9.48078 23.4593 9.47465 23.4593 9.47465 22.9211C9.47465 17.115 9.47465 11.3067 9.47465 5.49631C9.47069 4.50246 9.75724 3.53031 10.2971 2.70603C10.837 1.88178 11.6053 1.24347 12.5023 0.873942C13.3993 0.504417 14.3836 0.420744 15.3274 0.633784C16.2712 0.846822 17.131 1.34674 17.7951 2.06865C20.2432 4.79441 22.6546 7.55166 25.0812 10.2963C26.4522 11.8491 27.8262 13.3998 29.2032 14.9484C29.2768 15.0302 29.3287 15.1467 29.4695 15.1624C29.5826 15.0113 29.5307 14.8477 29.5307 14.6746C29.5307 10.2302 29.5307 5.78483 29.5307 1.33842C29.5307 0.614481 29.5307 0.614481 30.25 0.614481H35.0664C35.5897 0.614481 35.5929 0.614481 35.5929 1.16845C35.5929 7.00398 35.5929 12.8395 35.5929 18.6751C35.5866 19.6722 35.285 20.6437 34.7284 21.4601C34.172 22.2766 33.3867 22.8993 32.4776 23.2453C31.575 23.5886 30.5936 23.6494 29.6573 23.4198C28.7211 23.1901 27.872 22.6803 27.2172 21.9548L19.6557 13.4124L15.8734 9.13803L15.5888 8.80439Z" fill="#545454"/>
<path d="M38.5631 11.9669V0.67978C38.5631 0.0502718 38.5631 0.0502718 39.175 0.0502718C42.9604 0.0502718 46.7458 0.0502718 50.5313 0.0502718C53.5287 0.002356 56.4279 1.14882 58.6222 3.24971C60.8164 5.3506 62.1355 8.24302 62.3036 11.3216C62.4459 13.8877 61.7782 16.4324 60.3994 18.576C59.0206 20.7196 57.005 22.3473 54.6533 23.2162C53.443 23.6771 52.1644 23.919 50.874 23.9308C46.9479 23.9308 43.0217 23.9308 39.0955 23.9308C38.5845 23.9308 38.5631 23.9086 38.5631 23.3704C38.561 19.5724 38.561 15.7712 38.5631 11.9669ZM44.4508 12.0015C44.4508 13.8113 44.4508 15.6212 44.4508 17.4278C44.4508 17.7993 44.5517 17.9283 44.925 17.9252C46.8253 17.9094 48.7227 17.9031 50.623 17.9252C52.1505 17.9556 53.627 17.3607 54.728 16.2714C55.8291 15.182 56.4643 13.6874 56.4939 12.1164C56.5235 10.5453 55.9451 9.02651 54.886 7.89406C53.827 6.76161 52.3737 6.10827 50.8465 6.0778C48.8819 6.0778 46.9203 6.0778 44.9557 6.0778C44.4599 6.0778 44.457 6.0778 44.457 6.61604L44.4508 12.0015Z" fill="#545454"/>
<defs>
<linearGradient id="paint0_linear_6_1223" x1="98.737" y1="0.0634766" x2="92.0823" y2="20.9365" gradientUnits="userSpaceOnUse">
<stop stop-color="#3463F8"/>
<stop offset="1" stop-color="#214FDF"/>
</linearGradient>
<linearGradient id="paint1_linear_6_1223" x1="123.56" y1="0.141601" x2="111.936" y2="21.333" gradientUnits="userSpaceOnUse">
<stop stop-color="#3463F8"/>
<stop offset="1" stop-color="#214FDF"/>
</linearGradient>
</defs>
</svg>
