<svg width="459" height="267" viewBox="0 0 459 267" fill="none" xmlns="http://www.w3.org/2000/svg">
  <path d="M291.313 28.5066H167.303V238.16H291.313V28.5066Z" fill="#FF5F00"/>
  <path d="M175.177 133.333C175.158 113.142 180.021 93.2114 189.399 75.05C198.778 56.8886 212.425 40.9725 229.308 28.5067C208.401 13.0461 183.292 3.4314 156.85 0.761502C130.409 -1.90839 103.703 2.47415 79.7843 13.4084C55.8656 24.3427 35.6993 41.3875 21.5906 62.5944C7.48185 83.8014 0 108.315 0 133.333C0 158.351 7.48185 182.865 21.5906 204.072C35.6993 225.279 55.8656 242.324 79.7843 253.258C103.703 264.192 130.409 268.575 156.85 265.905C183.292 263.235 208.401 253.62 229.308 238.16C212.425 225.694 198.778 209.778 189.4 191.616C180.021 173.455 175.158 153.524 175.177 133.333V133.333Z" fill="#EB001B"/>
  <path d="M458.61 133.333C458.611 158.351 451.13 182.864 437.022 204.071C422.914 225.278 402.748 242.323 378.83 253.257C354.912 264.192 328.206 268.575 301.765 265.905C275.324 263.235 250.215 253.62 229.308 238.16C246.177 225.681 259.813 209.762 269.19 191.604C278.567 173.445 283.439 153.521 283.439 133.333C283.439 113.145 278.567 93.2208 269.19 75.0623C259.813 56.9037 246.177 40.9851 229.308 28.5066C250.215 13.046 275.324 3.43133 301.765 0.761467C328.206 -1.90839 354.912 2.47434 378.83 13.4087C402.748 24.3431 422.914 41.3879 437.022 62.5948C451.13 83.8018 458.611 108.315 458.61 133.333V133.333Z" fill="#F79E1B"/>
  <path d="M445.088 215.954V211.662H446.928V210.787H442.243V211.662H444.083V215.954H445.088ZM454.184 215.954V210.779H452.748L451.096 214.338L449.444 210.779H448.007V215.954H449.021V212.05L450.57 215.416H451.622L453.171 212.042V215.954H454.184Z" fill="#F79E1B"/>
</svg>
