<svg width="576" height="380" viewBox="0 0 576 380" fill="none" xmlns="http://www.w3.org/2000/svg">
    <path d="M399.303 3.5C367.403 5.30002 264.603 11.1 170.903 16.3C77.2034 21.6 0.303416 26.1 0.00341568 26.4C-0.296584 26.6 19.2034 80.7 43.4034 146.4L87.3034 265.9L87.6034 191.4L87.8034 116.9H129.603C173.903 116.9 183.703 117.6 198.303 122C225.403 130 237.903 144.4 238.103 167.9C238.303 183.4 233.503 194.5 222.203 204.8C209.803 216.2 190.103 222.1 160.103 223.6L146.803 224.2V246.6V268.9H117.703C94.8034 268.9 88.7034 269.2 89.0034 270.1C96.3034 291.8 129.503 379.9 130.203 379.6C130.803 379.4 209.403 354.8 304.903 324.8L478.603 270.4L451.703 270.1L424.803 269.9V193.4V116.9H454.303H483.803L484.003 192.8L484.303 268.6L529.603 254.4C554.503 246.6 575.003 240 575.303 239.8C575.503 239.6 551.503 185.5 522.003 119.7L468.303 0L462.803 0.100006C459.803 0.100006 431.203 1.70001 399.303 3.5ZM467.303 37.4C473.703 39.3 481.503 45.2 485.103 51.1C489.303 57.9 490.703 68.4 488.503 77.2C486.503 85.6 482.903 90.9 476.503 95.2C468.603 100.5 462.203 102.2 451.903 101.7C437.803 101 427.303 94.6 421.803 83.3C419.803 79.2 419.403 76.9 419.403 68.9C419.403 60.9 419.803 58.6 421.803 54.4C429.603 38.5 447.503 31.8 467.303 37.4ZM374.803 116C379.403 116.6 386.203 118 389.803 119.2L396.303 121.4L396.603 142.2L396.803 163L391.903 160.4C378.603 153.7 356.803 150.3 343.603 152.8C329.903 155.5 319.403 162.9 314.203 173.6C311.503 179.1 311.303 180.1 311.303 192.4C311.303 204.2 311.503 205.9 313.703 210.4C316.903 216.8 325.903 225.9 332.103 228.7C348.803 236.5 370.403 236.4 393.903 228.4L400.803 226V245.4C400.803 263 400.603 264.8 399.103 265.3C370.203 273.3 337.603 274.1 312.303 267.4C279.303 258.7 258.703 240.7 251.703 214.2C248.903 203.8 248.603 185.2 251.103 175.9C258.903 146.8 282.503 126.1 317.503 117.8C331.803 114.4 355.603 113.6 374.803 116Z" fill="#02797E"/>
    <path d="M145.803 169.9V189.9H150.603C164.403 189.9 176.603 185.3 180.003 178.9C182.203 174.6 182.403 165 180.303 161C176.603 153.7 167.603 149.9 154.103 149.9H145.803V169.9Z" fill="#02797E"/>
</svg>
